<?xml version="1.0" standalone="no"?>
<!DOCTYPE svg PUBLIC "-//W3C//DTD SVG 20010904//EN"
 "http://www.w3.org/TR/2001/REC-SVG-20010904/DTD/svg10.dtd">
<svg version="1.0" xmlns="http://www.w3.org/2000/svg"
 width="1280.000000pt" height="1280.000000pt" viewBox="0 0 1280.000000 1280.000000"
 preserveAspectRatio="xMidYMid meet">
<metadata>
Created by potrace 1.16, written by Peter Selinger 2001-2019
</metadata>
<g transform="translate(0.000000,1280.000000) scale(0.100000,-0.100000)"
fill="#000000" stroke="none">
<path d="M0 7294 l0 -5507 45 5 c24 3 42 2 39 -3 -3 -5 -23 -9 -45 -9 l-39 0
0 -890 0 -890 6400 0 6400 0 0 1040 0 1040 -23 -9 c-13 -5 -37 -12 -53 -15
-16 -3 -65 -15 -108 -27 -62 -17 -85 -19 -110 -11 -30 10 -30 11 14 10 43 0
141 29 148 45 2 4 10 7 17 7 8 0 37 5 65 11 l50 11 0 5349 0 5349 -6400 0
-6400 0 0 -5506z m7232 4672 c23 -12 30 -12 53 0 33 17 35 17 35 1 0 -12 -34
-47 -42 -44 -2 1 2 -3 9 -9 18 -16 16 -31 -5 -51 -33 -32 -62 -44 -88 -37 -28
7 -100 -12 -125 -33 -18 -15 -41 1 -32 23 3 9 -2 14 -16 14 -12 0 -21 5 -21
10 0 6 -7 10 -15 10 -23 0 -18 14 10 27 15 7 27 7 31 2 4 -6 11 -6 19 1 9 7
15 7 19 1 7 -12 86 28 86 43 0 11 40 56 49 56 3 0 18 -6 33 -14z m-797 -411
c26 -30 56 -57 67 -61 16 -5 18 -8 7 -15 -8 -5 -11 -9 -6 -10 4 -1 12 -3 17
-4 6 -1 15 -3 21 -4 6 0 9 -7 6 -15 -4 -11 1 -13 19 -10 24 4 24 3 12 -20 -16
-29 -85 -106 -95 -106 -5 0 -19 9 -33 20 -22 17 -23 19 -7 26 24 9 48 58 40
81 -8 22 -83 139 -83 130 0 -4 10 -27 22 -52 12 -24 19 -47 16 -51 -9 -9 -98
7 -98 17 0 6 12 32 26 60 14 28 23 53 20 56 -2 3 -25 -39 -51 -92 -49 -103
-49 -108 -2 -143 9 -7 17 -20 17 -28 0 -12 4 -12 24 2 23 15 27 14 63 -10 21
-14 43 -26 49 -26 25 0 52 -54 33 -66 -5 -3 -9 4 -9 15 0 22 -23 26 -116 22
-23 -2 -45 2 -48 7 -9 15 -76 -8 -76 -27 0 -8 14 -30 32 -48 17 -18 29 -35 26
-38 -3 -3 -13 1 -21 10 -9 8 -20 15 -25 15 -5 0 -15 13 -22 29 -10 24 -9 33 5
55 10 14 21 26 26 26 5 0 9 5 9 11 0 6 -7 9 -15 5 -8 -3 -15 -1 -15 4 0 13 26
13 51 0 25 -14 24 -5 -2 21 -18 18 -25 20 -40 10 -12 -7 -19 -7 -19 -1 0 5 -9
10 -20 10 -22 0 -26 16 -10 40 8 13 10 12 10 -2 0 -11 8 -18 19 -18 14 0 18 5
14 20 -3 11 -9 17 -14 14 -13 -7 -2 82 13 114 9 18 22 28 41 30 15 2 35 14 45
27 9 14 20 25 24 25 3 0 27 -25 53 -55z m325 -200 c6 4 10 1 10 -5 0 -6 8 -14
18 -17 9 -4 24 -13 32 -21 12 -13 10 -18 -14 -38 -15 -13 -39 -24 -54 -24 -20
0 -46 -18 -95 -65 -37 -36 -65 -70 -62 -75 3 -5 2 -18 -4 -27 -8 -16 -10 -15
-15 7 -12 58 -13 80 -4 80 6 0 7 11 4 26 -6 22 -4 25 10 20 21 -8 44 10 44 35
0 11 7 19 16 19 12 0 15 6 11 21 -8 29 2 49 29 60 13 4 24 15 24 24 0 12 4 11
20 -5 12 -12 25 -18 30 -15z m-350 -424 c0 -10 7 -21 15 -25 8 -3 12 -12 9
-20 -3 -9 3 -19 16 -26 14 -8 20 -18 17 -30 -3 -12 2 -20 14 -23 13 -4 17 -10
12 -23 -4 -11 -3 -15 4 -11 6 4 19 -5 28 -19 13 -20 14 -28 5 -34 -8 -5 -3
-10 14 -14 22 -5 26 -12 24 -34 -2 -21 1 -27 17 -27 12 0 20 -7 20 -18 0 -10
7 -22 15 -27 10 -7 11 -10 3 -10 -7 0 -13 -7 -13 -16 0 -10 6 -14 15 -11 20 8
31 -14 13 -27 -20 -15 -11 -36 15 -36 20 0 20 -1 2 -13 -13 -10 -15 -16 -6
-21 6 -4 18 -2 26 4 11 9 15 9 15 1 0 -6 -4 -11 -9 -11 -5 0 -13 -9 -16 -20
-10 -33 -19 -24 -40 43 -11 34 -34 90 -52 125 -18 34 -28 62 -22 62 6 0 7 5 4
10 -4 6 -10 8 -14 6 -9 -6 -40 28 -60 66 -15 30 -87 108 -99 108 -6 0 -108
-137 -144 -193 -4 -7 -12 -5 -22 6 -21 21 -20 30 3 22 23 -7 39 14 20 26 -7 4
-10 11 -6 16 5 4 12 2 16 -6 6 -9 22 8 53 56 25 37 49 79 53 93 16 57 55 92
55 51z m153 -22 c9 -17 17 -36 17 -42 0 -19 38 -39 43 -24 2 7 11 -3 21 -21
10 -19 21 -30 28 -26 7 4 8 3 4 -4 -4 -6 7 -30 24 -53 16 -23 30 -48 30 -56 0
-7 5 -13 11 -13 7 0 9 -9 6 -21 -4 -15 -2 -19 9 -15 8 3 13 2 10 -3 -3 -5 5
-25 19 -45 24 -36 24 -66 0 -66 -21 0 -28 19 -14 36 6 8 8 18 4 22 -4 4 -10 1
-12 -5 -7 -18 -43 -16 -43 2 0 8 7 15 15 15 8 0 15 7 15 15 0 11 -5 12 -26 5
-26 -10 -44 -6 -44 11 0 5 9 9 20 9 11 0 20 5 20 10 0 6 -16 10 -35 10 -19 0
-35 5 -35 10 0 6 10 10 22 10 21 0 21 0 2 19 -14 13 -23 16 -32 8 -9 -7 -16
-6 -25 3 -7 8 -8 14 -2 16 26 11 37 23 30 34 -5 8 -10 9 -18 1 -14 -14 -47
-14 -47 0 0 6 10 19 23 29 12 10 19 22 14 26 -4 4 -13 2 -19 -4 -7 -7 -17 -12
-24 -12 -17 0 -27 31 -14 44 5 5 10 15 10 21 0 5 -7 1 -15 -9 -11 -15 -18 -17
-26 -9 -13 13 -4 33 17 33 8 0 14 7 14 15 0 12 -4 13 -25 3 -18 -8 -29 -8 -36
-1 -14 14 -3 33 17 33 8 0 14 5 14 10 0 19 15 10 33 -21z m-967 -344 c101
-120 111 -130 127 -116 9 7 21 10 26 6 6 -3 8 0 5 8 -3 9 -13 13 -25 10 -13
-4 -19 0 -19 11 0 10 9 16 23 17 16 1 18 2 5 6 -21 5 -24 39 -5 46 9 3 9 9 0
25 -10 16 -10 22 0 26 9 3 9 7 -2 14 -8 6 -10 12 -3 16 6 4 15 -2 21 -11 6
-10 11 -14 11 -9 0 5 -8 18 -17 28 -15 17 -15 20 -3 28 9 6 19 5 24 0 12 -12
66 -13 66 -2 0 4 9 8 20 8 11 0 20 -4 20 -9 0 -5 -9 -11 -20 -14 -11 -3 -20
-8 -20 -12 0 -3 9 -12 20 -19 13 -8 20 -9 20 -1 0 7 11 8 31 4 21 -5 29 -4 25
4 -5 7 3 7 24 -1 24 -8 37 -7 55 2 23 13 65 6 65 -11 0 -5 -11 -7 -24 -3 -29
7 -43 -11 -19 -25 10 -5 15 -13 11 -17 -4 -4 -14 -2 -21 5 -11 9 -17 8 -27 -4
-10 -12 -9 -16 4 -21 13 -5 14 -9 5 -20 -9 -11 -15 -11 -25 -3 -11 9 -18 8
-29 -1 -14 -11 -13 -14 1 -25 16 -11 15 -12 -1 -19 -10 -3 -26 -4 -36 -1 -14
5 -16 2 -12 -16 5 -20 3 -21 -20 -15 -15 3 -27 2 -27 -3 0 -16 -41 -20 -47 -5
-3 8 -9 12 -14 9 -4 -3 -5 -13 -2 -22 5 -13 2 -15 -15 -11 -12 4 -25 2 -28 -3
-16 -27 -113 10 -163 62 -17 19 -45 57 -61 84 -33 58 -90 198 -90 222 0 10 30
-28 66 -82 37 -55 82 -118 100 -140z m1715 213 c7 -85 -38 -210 -107 -295 -62
-76 -172 -94 -275 -44 -23 12 -49 21 -56 21 -8 0 -16 7 -19 15 -4 8 -14 15
-24 15 -27 0 -35 19 -16 38 16 16 18 16 27 0 6 -10 17 -18 25 -18 8 0 17 -7
20 -15 4 -8 13 -15 20 -15 8 0 17 -6 20 -14 3 -8 13 -12 25 -9 10 3 19 1 19
-3 0 -5 11 -9 24 -9 21 0 25 7 36 65 16 81 32 120 59 144 17 15 21 16 21 4 0
-8 -9 -23 -20 -33 -23 -21 -43 -104 -38 -160 l3 -40 32 34 c86 87 213 296 198
321 -3 6 1 10 9 10 9 0 16 -6 17 -12z m-2384 -45 c3 -10 21 -52 39 -94 19 -42
34 -86 34 -97 0 -11 7 -25 15 -32 12 -10 15 -10 15 1 0 12 2 12 9 1 9 -15 44
-37 74 -48 9 -3 17 -11 17 -18 1 -19 58 -75 82 -81 53 -12 78 -13 83 -4 4 5
14 5 26 -1 11 -6 23 -8 28 -5 5 3 12 -1 14 -7 3 -8 6 -5 6 6 1 12 6 16 16 12
8 -3 22 -9 30 -12 8 -3 15 -1 15 5 0 6 4 11 8 11 10 0 33 -57 38 -95 2 -16 11
-48 20 -69 8 -21 18 -68 21 -103 3 -35 9 -66 14 -69 4 -2 5 -20 2 -39 -3 -18
-1 -47 5 -64 9 -24 8 -34 -3 -45 -8 -8 -13 -29 -11 -52 2 -42 12 -46 66 -30
14 4 1 -7 -27 -23 -54 -32 -66 -54 -37 -65 13 -5 15 -19 13 -79 l-4 -72 35 3
35 3 -54 -33 c-30 -18 -56 -37 -58 -43 -2 -6 18 -9 51 -7 67 5 152 -28 142
-54 -3 -8 -6 -22 -6 -30 0 -8 -18 -23 -40 -33 -22 -10 -37 -21 -32 -26 4 -5 2
-5 -5 -1 -24 14 -180 -42 -165 -60 4 -4 -1 -2 -11 5 -15 12 -17 12 -11 -3 11
-29 -2 -17 -49 44 -26 33 -54 60 -63 60 -19 0 0 -33 89 -157 l60 -82 107 54
c106 53 271 146 300 170 8 6 33 22 55 35 l40 24 -20 -23 c-37 -42 -152 -110
-381 -225 -286 -143 -692 -311 -710 -293 -3 2 7 8 22 11 68 17 533 214 558
237 5 4 -4 22 -20 41 -16 19 -56 71 -88 116 -31 45 -62 80 -67 76 -6 -3 8 -38
30 -80 22 -41 37 -74 33 -75 -32 -4 -68 -11 -81 -17 -9 -4 -50 -6 -91 -5 -41
2 -84 3 -95 3 -11 0 -36 8 -56 17 l-36 17 49 23 c44 20 64 43 37 43 -6 0 -214
-41 -462 -90 -247 -50 -455 -89 -460 -87 -12 4 299 87 433 116 52 11 165 32
250 46 188 30 250 44 250 56 0 5 -6 9 -13 9 -13 0 -41 39 -34 47 3 2 15 -5 27
-17 29 -29 37 -18 11 16 -11 15 -21 33 -21 41 0 7 -7 16 -15 19 -20 8 -19 24
1 24 9 0 14 7 12 18 -7 36 -81 29 -373 -33 -93 -20 -237 -49 -320 -65 -82 -15
-163 -31 -180 -34 -75 -16 27 17 184 59 211 56 377 90 527 110 66 8 127 18
137 21 21 7 23 24 1 24 -10 0 -14 7 -11 18 2 9 -7 32 -20 50 -22 29 -23 34 -9
47 8 9 13 22 10 30 -7 17 -30 20 -39 5 -7 -12 -25 -4 -25 11 0 5 16 9 35 9 28
0 35 4 35 20 0 11 -7 20 -16 20 -11 0 -15 8 -13 28 4 55 -1 82 -16 82 -8 0
-15 7 -15 17 0 15 2 15 19 -1 24 -22 49 -12 27 10 -8 8 -19 14 -25 14 -6 0
-11 7 -11 15 0 8 9 15 20 15 24 0 26 13 5 30 -21 17 -19 30 5 30 17 0 20 -7
20 -42 0 -24 2 -61 5 -83 2 -22 6 -68 8 -102 4 -66 29 -112 51 -94 7 6 17 6
26 1 40 -25 74 -4 65 40 -3 17 -1 19 16 9 33 -17 47 -5 44 40 -2 41 -32 81
-60 81 -6 0 -17 11 -23 25 -16 34 -15 38 3 31 9 -3 15 0 15 9 0 8 4 15 10 15
5 0 7 -7 3 -16 -4 -12 -2 -15 8 -12 8 3 14 9 14 14 0 5 4 15 9 22 4 7 6 16 3
18 -3 3 -1 19 3 34 7 24 4 37 -16 65 -13 20 -24 40 -24 45 0 5 -10 16 -22 24
l-22 16 23 0 c23 0 23 1 -11 43 -20 23 -40 42 -46 42 -6 0 -17 6 -23 13 -7 6
-19 12 -26 12 -7 0 -13 6 -13 12 0 7 -11 1 -24 -12 -16 -18 -21 -29 -14 -37 8
-9 6 -13 -6 -13 -9 0 -16 -4 -16 -10 0 -5 5 -10 10 -10 6 0 8 -11 4 -25 -5
-19 -2 -25 10 -25 12 0 16 -10 16 -36 0 -21 -4 -33 -10 -29 -5 3 -10 18 -10
33 0 25 -1 25 -14 6 -10 -13 -11 -23 -4 -31 7 -9 6 -15 -6 -19 -9 -3 -16 -14
-16 -24 0 -25 -74 -78 -134 -95 -52 -16 -146 -11 -146 7 0 5 -6 8 -12 7 -25
-3 -80 14 -85 27 -3 8 -10 14 -17 14 -6 0 -22 9 -36 20 -14 11 -33 20 -42 20
-10 0 -18 7 -18 15 0 8 -9 15 -20 15 -14 0 -18 5 -13 16 3 9 0 20 -8 25 -20
13 -29 11 -29 -6 0 -8 -4 -15 -10 -15 -5 0 -10 7 -10 15 0 8 5 15 10 15 17 0
11 25 -10 38 -11 7 -20 18 -20 25 0 7 9 18 20 25 16 10 20 10 20 -1 0 -19 35
-49 45 -40 4 5 5 0 2 -9 -5 -14 -1 -18 18 -18 18 0 23 -4 19 -15 -5 -11 -2
-13 10 -9 11 4 16 1 16 -10 0 -8 6 -13 13 -10 7 2 20 -9 30 -25 12 -21 23 -28
34 -24 10 4 14 2 10 -4 -8 -12 34 -43 58 -43 8 0 15 -5 15 -11 0 -5 4 -8 9 -5
4 3 22 0 40 -7 24 -9 36 -9 51 1 14 8 21 9 26 0 5 -7 11 -6 20 6 7 10 17 15
23 11 6 -3 11 1 11 10 0 21 24 45 44 45 24 0 19 18 -6 23 l-23 4 23 8 c15 5
22 15 22 32 0 19 4 24 16 19 9 -3 12 -2 8 5 -12 20 -11 69 3 69 7 0 13 7 13
16 0 14 -3 14 -15 4 -8 -7 -15 -8 -15 -4 0 5 9 15 19 21 13 8 18 19 14 33 -4
16 -1 20 19 20 17 0 29 8 36 25 17 37 15 43 -15 47 -24 3 -28 8 -28 33 0 25 4
30 23 29 16 0 21 4 18 13 -3 8 4 27 15 42 28 39 22 66 -16 67 -17 0 -36 1 -42
2 -16 2 -16 33 -1 84 10 35 10 41 -5 50 -9 5 -17 16 -17 23 0 21 29 19 37 -2z
m-722 -160 c-31 -74 -33 -85 -14 -104 11 -11 19 -28 19 -39 0 -11 5 -20 10
-20 6 0 10 -6 10 -13 0 -7 11 -24 25 -39 14 -15 25 -29 25 -32 0 -3 11 -17 25
-32 28 -30 31 -44 13 -62 -17 -17 -29 -15 -63 13 -24 21 -27 27 -16 34 12 8
10 12 -12 22 -20 9 -26 17 -21 31 7 23 3 23 -43 -4 -36 -21 -37 -21 -20 -2 9
11 17 26 17 32 0 6 8 15 17 21 16 8 14 11 -10 22 -32 14 -35 29 -7 29 27 0 25
13 -5 41 -28 27 -31 39 -11 39 8 0 25 18 37 40 23 41 37 54 24 23z m2230 -55
c51 -105 43 -194 -18 -227 -77 -41 -139 92 -91 195 17 38 62 104 71 104 2 0
19 -32 38 -72z m1420 -136 c8 -35 9 -54 1 -62 -7 -7 -7 -10 1 -10 6 0 14 -7
17 -16 5 -13 1 -15 -19 -10 -14 4 -25 2 -25 -4 0 -5 6 -10 13 -10 24 0 47 -24
38 -39 -8 -12 -12 -12 -25 -2 -24 20 -19 4 9 -33 14 -18 25 -40 25 -48 0 -9 6
-21 14 -28 8 -6 13 -17 10 -25 -3 -7 -1 -16 5 -20 6 -3 11 -15 11 -26 0 -10 6
-19 14 -19 8 0 16 -6 19 -14 3 -8 23 -20 45 -26 31 -10 50 -9 101 4 35 9 67
14 72 10 5 -3 9 1 9 9 0 16 45 32 60 22 20 -12 10 -35 -14 -35 -13 0 -26 -5
-28 -11 -2 -6 -16 -11 -31 -11 -15 0 -27 -5 -27 -10 0 -6 -9 -8 -20 -5 -11 3
-22 2 -25 -3 -8 -12 -140 -4 -171 11 -16 8 -45 38 -64 67 -24 36 -36 48 -38
37 -2 -9 4 -25 14 -36 12 -13 14 -22 6 -31 -6 -8 -8 -34 -5 -63 4 -28 6 -67 5
-87 -1 -28 3 -40 18 -48 16 -9 22 -7 27 6 4 10 2 19 -5 22 -17 5 -15 23 2 20
8 -2 21 5 29 16 8 11 31 20 58 23 38 4 50 1 76 -21 17 -14 38 -46 46 -71 19
-56 3 -60 -19 -5 -16 41 -65 90 -88 90 -23 0 -66 -41 -81 -77 -22 -52 -19
-125 6 -157 24 -30 11 -36 -16 -6 -10 11 -15 20 -10 20 4 0 2 7 -5 15 -7 9
-12 36 -12 60 2 35 -2 46 -17 55 -33 17 -43 11 -21 -12 24 -26 26 -38 5 -38
-8 0 -15 -4 -15 -10 0 -5 7 -10 15 -10 20 0 19 -10 -2 -26 -17 -12 -16 -13 5
-14 12 0 22 -5 22 -10 0 -6 -8 -10 -17 -8 -11 2 -18 -3 -18 -12 0 -10 8 -14
25 -13 l25 3 -24 -14 c-14 -8 -32 -12 -40 -9 -14 4 -14 3 0 -9 12 -10 14 -19
7 -37 -4 -13 -7 -25 -5 -27 2 -2 86 -17 188 -34 101 -16 209 -35 239 -41 185
-39 569 -153 557 -166 -2 -2 -16 1 -30 6 -15 6 -64 19 -109 30 -46 11 -141 34
-213 51 -365 87 -665 133 -665 103 0 -8 7 -16 15 -19 20 -8 19 -24 -1 -24 -8
0 -12 -5 -9 -11 4 -6 13 -8 21 -5 7 3 16 1 19 -3 2 -5 -5 -11 -17 -14 -12 -4
-19 -9 -15 -13 3 -3 -2 -14 -13 -23 -10 -9 -21 -25 -24 -36 -5 -16 -1 -20 18
-21 14 -1 75 -11 138 -23 62 -11 140 -26 173 -32 111 -20 239 -50 375 -90 259
-76 320 -105 101 -49 -137 35 -253 62 -533 124 -202 46 -288 59 -288 47 0 -3
70 -32 155 -65 86 -32 154 -60 152 -62 -2 -2 -42 7 -90 20 -48 12 -87 21 -87
19 0 -2 38 -22 85 -45 82 -40 84 -42 65 -58 -11 -10 -40 -25 -65 -35 -39 -14
-57 -15 -121 -7 -52 7 -85 7 -105 0 -23 -8 -34 -7 -47 4 -27 23 -54 30 -64 16
-6 -10 -10 -10 -17 1 -5 8 -16 11 -25 8 -9 -4 -16 -2 -16 3 0 6 -16 10 -35 10
-19 0 -35 4 -35 9 0 5 -15 12 -32 15 -59 11 -64 20 -35 57 45 61 108 171 101
178 -3 3 -16 -7 -28 -23 -11 -16 -50 -67 -84 -113 -35 -47 -62 -86 -60 -87 1
-2 64 -30 138 -64 207 -92 627 -251 665 -252 6 0 28 30 50 68 66 115 77 133
82 129 6 -7 -17 -54 -66 -137 -24 -41 -45 -76 -46 -78 -5 -6 -289 90 -460 155
-167 64 -582 260 -700 331 -74 45 -187 127 -161 118 10 -3 57 -30 105 -60 132
-81 374 -202 378 -189 3 7 19 31 37 55 35 47 106 155 106 163 0 18 -26 -7 -85
-82 -38 -49 -72 -92 -76 -97 -11 -12 -282 125 -329 166 -19 17 -27 28 -17 25
9 -4 17 -2 17 3 0 6 5 10 11 10 6 0 29 13 52 29 51 35 125 61 173 61 42 0 37
13 -15 39 -204 105 -694 138 -1266 87 l-60 -6 60 15 c127 30 371 48 570 42
215 -7 393 -33 650 -97 54 -13 55 -13 55 10 0 11 -6 20 -12 20 -10 0 -9 3 1 9
9 6 11 18 7 34 -4 16 -1 27 7 30 9 4 9 7 0 18 -17 18 -16 29 2 29 26 0 16 24
-20 49 -45 30 -147 57 -299 77 -90 12 -210 17 -466 18 -312 1 -422 -4 -610
-29 -79 -10 16 16 110 31 431 68 766 56 1135 -38 66 -16 134 -32 150 -35 l30
-4 -35 30 c-19 17 -29 31 -22 31 9 0 11 7 7 20 -4 12 -2 20 5 20 7 0 9 8 5 19
-3 11 -1 22 5 26 18 11 11 35 -10 35 -11 0 -20 5 -20 10 0 6 7 10 15 10 16 0
18 11 17 70 -1 19 3 48 9 64 6 20 5 33 -3 43 -9 11 -7 15 9 19 11 3 26 17 32
30 9 21 8 24 -9 24 -11 0 -20 4 -20 9 0 20 13 41 24 41 17 0 36 44 29 68 -3
11 0 29 6 39 10 17 10 17 11 -3 0 -24 23 -48 35 -36 5 4 5 1 1 -6 -4 -7 6 -25
26 -45 18 -18 42 -45 53 -60 25 -32 45 -34 45 -4 0 42 14 49 40 22 13 -14 29
-25 36 -25 7 0 14 -4 16 -10 6 -18 120 -19 158 -1 59 29 80 45 80 61 0 9 7 25
15 36 17 22 20 60 5 69 -14 9 -13 28 2 23 6 -2 17 -27 23 -56z m735 45 c0 -7
-7 -23 -16 -36 -18 -25 -14 -32 28 -54 20 -10 24 -17 16 -28 -7 -11 -11 -11
-15 -1 -2 6 -11 12 -19 12 -8 0 -14 5 -14 10 0 13 -27 13 -35 1 -3 -5 2 -16
10 -24 23 -23 18 -29 -17 -22 -27 6 -31 5 -20 -6 18 -19 15 -29 -9 -29 -16 0
-19 -4 -14 -19 4 -15 0 -20 -17 -23 -16 -2 -24 -11 -26 -29 -2 -21 -7 -26 -22
-22 -15 4 -18 1 -13 -16 4 -16 1 -21 -16 -21 -12 0 -21 -6 -21 -15 0 -8 -6
-15 -14 -15 -8 0 -16 -6 -19 -12 -3 -9 -12 -6 -28 10 -20 18 -21 22 -6 22 9 0
25 8 36 19 10 10 25 23 33 27 18 12 108 123 119 149 5 11 17 32 27 46 9 15 26
41 37 58 20 32 35 40 35 18z m-5131 -432 c109 -149 187 -215 257 -215 49 0 12
-21 -49 -27 -61 -6 -96 9 -149 64 -22 23 -138 240 -138 258 0 20 26 -7 79 -80z
m5911 38 c0 -4 -23 -49 -52 -101 -98 -176 -183 -223 -313 -172 -27 11 -28 13
-10 20 11 4 27 3 35 -3 37 -23 147 55 255 181 65 75 85 93 85 75z m-2565 -653
c-3 -5 0 -8 7 -5 7 3 65 -28 128 -69 63 -41 150 -96 193 -121 42 -26 77 -49
77 -51 0 -3 -9 0 -19 6 -11 5 -31 14 -44 19 -23 9 -25 7 -22 -15 1 -13 -2 -24
-6 -24 -5 0 -9 7 -9 15 0 8 -5 15 -10 15 -6 0 -10 -8 -8 -17 2 -10 -3 -17 -9
-15 -15 2 -17 -14 -3 -23 6 -4 8 -11 5 -16 -4 -5 -17 -2 -31 7 -15 10 -24 12
-24 5 0 -6 5 -11 11 -11 5 0 7 -5 3 -12 -5 -8 -11 -6 -20 6 -10 15 -12 11 -8
-23 2 -22 -1 -43 -7 -46 -12 -8 -48 34 -49 56 0 9 -7 20 -16 23 -14 5 -15 4
-4 -9 7 -9 11 -17 9 -19 -15 -11 -70 -27 -78 -22 -5 3 -21 2 -35 -4 -17 -6
-26 -6 -26 0 0 6 -4 10 -10 10 -5 0 -9 -6 -7 -12 2 -14 -26 -15 -55 -3 -27 11
-22 -7 17 -64 47 -71 26 -54 -26 20 -29 40 -46 56 -52 50 -7 -7 -15 -7 -24 0
-10 9 -13 8 -13 -1 0 -9 -12 -11 -46 -6 -82 11 -135 95 -136 218 -1 66 15 93
61 107 37 11 199 27 239 24 12 -1 22 2 22 8 0 5 7 9 16 9 8 0 12 -4 9 -10z
m-819 -35 c5 -12 10 -12 27 -4 27 15 205 6 243 -13 22 -10 31 -23 38 -56 14
-66 -1 -104 -49 -120 -31 -10 -44 -11 -59 -2 -10 7 -21 8 -25 3 -11 -15 -61
-15 -67 1 -3 8 -12 12 -20 9 -8 -3 -14 0 -14 6 0 6 -5 11 -12 11 -6 0 -19 7
-29 16 -10 9 -33 23 -51 32 -21 11 -33 24 -33 37 0 17 -6 20 -40 17 l-40 -3
55 40 c61 45 68 47 76 26z m1281 -223 c13 -8 -70 -74 -172 -134 -135 -80 -185
-92 -185 -45 0 12 -7 35 -15 50 -10 21 -11 27 -2 25 6 -3 16 -21 21 -41 5 -20
14 -37 20 -37 9 0 155 91 281 176 23 15 35 17 52 6z m162 -86 c197 -91 221
-103 215 -108 -3 -4 -21 -4 -40 -1 -21 3 -40 1 -49 -7 -9 -8 -44 -15 -78 -17
-34 -1 -73 -8 -86 -15 -20 -11 -25 -11 -29 0 -3 10 -7 10 -18 1 -8 -6 -21 -8
-31 -4 -29 13 -53 16 -53 7 0 -5 -15 -8 -34 -8 -19 1 -34 6 -33 11 1 6 -8 10
-21 9 -20 -1 -14 9 40 64 84 87 88 92 88 103 0 18 34 9 129 -35z m-889 -262
c0 -3 -5 -14 -11 -25 -12 -24 -61 -197 -109 -387 l-34 -133 -18 36 c-11 20
-33 71 -50 113 -45 115 -51 118 -77 30 -40 -133 -59 -183 -65 -168 -42 118
-143 384 -158 415 -11 22 -32 50 -46 62 l-27 23 70 0 c39 0 81 3 94 7 22 6 23
4 17 -22 -5 -20 3 -57 30 -131 20 -57 40 -101 45 -99 4 3 13 30 20 60 14 61 3
117 -32 167 -11 14 -19 29 -19 32 0 3 39 6 87 6 l86 0 -23 -25 -24 -25 23 -71
c30 -94 51 -142 58 -135 8 8 43 176 43 209 0 15 -7 30 -15 33 -31 12 -13 23
43 27 31 2 65 4 75 5 9 1 17 -1 17 -4z m372 -24 c35 -10 36 -12 40 -63 5 -60
1 -70 -15 -42 -37 67 -100 93 -139 58 -41 -36 -19 -79 70 -138 44 -28 76 -58
90 -83 70 -125 -38 -254 -181 -217 -36 9 -56 10 -64 3 -10 -8 -13 1 -13 40 0
27 -3 64 -6 81 -9 45 7 38 35 -15 44 -82 96 -104 146 -61 47 40 15 93 -99 170
-67 44 -91 88 -82 150 8 50 44 103 80 117 29 12 94 12 138 0z m-1035 -39 c62
-39 120 -182 110 -272 -6 -52 -33 -109 -70 -151 -83 -91 -238 -89 -306 4 -37
50 -66 170 -57 235 11 84 64 160 131 189 47 21 154 18 192 -5z m1437 1 c64
-17 101 -42 60 -42 -18 0 -18 11 5 -200 3 -30 10 -55 16 -55 5 0 20 18 33 40
20 35 22 48 17 109 -4 37 -11 79 -17 92 -6 13 -9 26 -7 28 2 2 40 -6 84 -17
l80 -22 -24 -23 c-22 -22 -23 -27 -16 -114 13 -156 15 -158 69 -45 25 54 46
104 46 110 0 7 -9 18 -20 25 -11 7 -20 19 -20 26 0 11 7 13 33 6 17 -5 51 -14
75 -20 47 -12 52 -21 20 -35 -16 -7 -54 -72 -128 -220 -58 -115 -109 -210
-115 -210 -5 0 -16 38 -23 85 -7 47 -16 103 -20 125 l-8 40 -20 -34 c-44 -78
-115 -183 -120 -178 -3 3 -16 90 -29 194 -34 265 -45 324 -61 330 -20 7 -17
23 4 23 9 0 48 -8 86 -18z m-1919 -81 c83 -37 119 -109 119 -236 0 -63 -5 -89
-22 -122 -25 -47 -71 -85 -122 -101 -51 -16 -202 -43 -208 -37 -3 2 1 12 8 20
11 13 11 32 1 98 -28 194 -54 310 -73 329 -22 22 -26 20 97 47 114 25 150 25
200 2z m2525 -65 c31 -13 33 -16 37 -82 8 -118 40 -418 48 -436 6 -15 2 -15
-62 -1 -37 8 -70 17 -73 20 -2 2 1 13 8 23 13 22 15 50 6 75 -7 17 -83 55
-110 55 -17 0 -57 -77 -50 -97 5 -12 -1 -14 -36 -8 -62 10 -76 20 -50 34 21
11 165 255 217 369 16 34 29 62 31 62 1 0 16 -6 34 -14z m-2991 -121 c33 -63
90 -163 125 -222 61 -103 63 -108 43 -114 -12 -4 -44 -14 -72 -22 -54 -17 -64
-15 -46 7 9 11 8 23 -5 55 -18 45 -25 47 -102 29 -37 -8 -52 -17 -56 -32 -11
-39 -6 -65 14 -84 20 -18 20 -19 -27 -30 -27 -6 -56 -14 -65 -17 -16 -6 -16
-3 2 38 13 28 24 87 31 154 5 59 15 137 21 173 6 36 12 83 12 105 1 34 6 43
31 57 17 9 31 17 32 18 1 0 29 -52 62 -115z m-338 16 l-23 -18 20 -84 c11 -46
33 -136 48 -199 15 -63 33 -127 41 -142 13 -27 12 -28 -12 -28 -13 0 -47 -9
-75 -19 -27 -11 -50 -15 -50 -10 0 5 5 9 10 9 14 0 12 54 -4 121 -13 54 -35
106 -36 83 0 -5 -23 -16 -51 -23 -28 -7 -53 -20 -56 -28 -8 -21 26 -139 48
-167 l19 -24 -51 -11 c-28 -6 -60 -16 -72 -23 -19 -10 -20 -9 -10 4 7 8 9 19
5 23 -4 5 -1 5 7 0 14 -8 31 10 31 35 0 13 -1 13 -11 0 -8 -12 -9 -8 -4 13 5
26 4 27 -14 17 -23 -12 -21 -17 -73 194 -20 80 -39 137 -51 149 -10 10 -17 20
-15 21 20 15 149 52 153 45 4 -5 -1 -12 -9 -15 -21 -8 -20 -13 6 -113 l22 -83
55 6 c31 4 59 10 63 14 7 7 1 32 -33 165 -6 24 -16 37 -26 37 -29 0 -1 17 72
43 85 31 109 34 76 8z m3782 -55 c58 -28 90 -72 83 -114 -7 -45 -50 -110 -82
-124 -31 -14 -29 -27 19 -176 l32 -100 -27 14 c-16 8 -28 20 -28 27 0 8 -3 8
-9 -2 -7 -11 -14 -9 -33 10 -17 17 -33 58 -53 137 -16 61 -34 112 -40 112 -6
0 -22 -43 -34 -95 -19 -75 -21 -98 -12 -109 9 -11 -5 -9 -56 7 -37 12 -69 22
-71 23 -2 1 6 17 17 35 10 19 33 99 50 179 41 196 46 230 32 230 -6 0 -11 4
-11 9 0 10 168 -37 223 -63z m-4229 -102 c19 -74 16 -88 -9 -51 -39 60 -115
67 -150 13 -25 -38 0 -79 62 -102 162 -59 195 -91 192 -192 -1 -26 -4 -36 -6
-22 -2 14 -11 30 -20 37 -8 7 -12 17 -7 24 4 7 3 10 -4 5 -5 -3 -12 -3 -15 1
-2 5 -2 3 -1 -4 2 -7 -3 -10 -12 -6 -8 3 -13 12 -10 19 3 8 0 11 -10 7 -10 -4
-12 0 -8 11 5 12 0 16 -17 16 -19 0 -21 2 -9 10 12 8 10 10 -10 11 -14 1 -33
1 -44 0 -16 -1 -17 1 -5 15 11 13 10 17 -2 25 -19 13 -55 6 -51 -9 1 -8 -2
-11 -8 -7 -7 4 -7 12 0 24 7 14 5 23 -9 35 -10 9 -21 13 -24 9 -7 -6 -11 12
-8 31 3 17 -11 46 -19 41 -5 -3 -6 -13 -3 -22 5 -12 3 -14 -6 -8 -10 6 -11 2
-7 -16 6 -21 6 -22 -4 -6 -33 52 60 147 143 147 14 0 30 7 37 15 21 25 27 18
44 -51z m5580 -85 c-111 -114 -328 -264 -574 -398 -99 -54 -105 -59 -103 -87
3 -28 3 -28 -7 -5 -6 13 -18 30 -28 37 -9 7 -15 14 -12 17 3 2 68 37 145 77
248 129 404 232 559 369 38 34 72 59 75 56 2 -3 -22 -33 -55 -66z m-6660 -2
c161 -139 322 -245 541 -354 94 -46 172 -91 173 -100 5 -22 -23 -11 -163 61
-222 115 -424 253 -565 384 -80 75 -70 82 14 9z m2912 -228 c-50 -43 -115 -93
-155 -117 -18 -11 -74 -60 -126 -109 -107 -104 -213 -183 -244 -183 -21 0 -21
-1 5 -25 15 -14 32 -25 37 -25 6 0 7 -3 4 -6 -3 -4 -22 1 -41 10 -22 10 -47
14 -67 11 -22 -4 -35 -1 -43 11 -10 13 -17 14 -34 5 -11 -6 -31 -11 -44 -11
-18 0 -20 -2 -8 -10 11 -7 7 -9 -15 -7 -16 1 -33 7 -37 12 -5 7 -10 7 -15 0
-7 -9 -98 -12 -143 -5 -28 4 44 20 120 26 41 4 82 8 90 10 8 1 26 3 40 3 33 1
16 14 -50 39 -52 19 -168 70 -217 94 -22 11 -177 7 -218 -6 -11 -4 -4 1 15 10
54 26 294 38 363 18 29 -9 81 -18 117 -21 62 -4 69 -2 165 45 114 56 133 63
231 91 53 16 99 41 185 100 63 43 116 77 118 75 2 -1 -13 -17 -33 -35z m-2836
-392 c32 -156 69 -263 112 -328 42 -62 140 -149 276 -243 45 -32 82 -62 82
-67 0 -12 -4 -10 -85 44 -110 73 -237 181 -281 240 -46 62 -87 173 -120 327
-21 102 -44 292 -43 365 1 44 6 21 19 -88 10 -82 28 -194 40 -250z m5594 341
c-4 -7 -22 -34 -41 -59 -18 -26 -33 -50 -33 -53 0 -4 -8 -19 -18 -34 -11 -15
-32 -47 -47 -70 -37 -57 -80 -102 -130 -138 -22 -16 -51 -39 -65 -51 -14 -12
-36 -31 -50 -43 l-25 -21 25 6 c17 5 6 -8 -35 -39 -33 -25 -87 -68 -119 -96
-32 -27 -72 -52 -87 -55 -16 -4 -31 -11 -35 -16 -20 -33 130 39 201 96 22 18
56 40 74 50 l35 18 -19 -29 c-10 -16 -29 -39 -43 -50 -18 -16 -21 -23 -11 -27
8 -3 4 -6 -8 -6 -13 -1 -23 -6 -23 -12 0 -5 -5 -7 -11 -4 -6 4 -9 0 -7 -11 2
-13 -3 -19 -15 -19 -10 0 -22 -6 -26 -14 -5 -7 -13 -11 -19 -7 -6 3 -23 1 -39
-6 -15 -6 -35 -12 -43 -13 -29 -2 -85 -17 -97 -27 -10 -8 -13 -5 -14 8 0 11
-3 14 -6 7 -2 -7 -11 -13 -19 -13 -8 0 -14 -4 -14 -9 0 -5 -9 -7 -20 -4 -11 3
-20 0 -20 -6 0 -6 -9 -11 -20 -11 -11 0 -20 -5 -20 -11 0 -6 -9 -8 -20 -4 -12
4 -20 2 -20 -6 0 -9 -3 -9 -14 0 -10 9 -16 9 -21 1 -4 -6 -14 -9 -23 -5 -8 3
-19 0 -23 -7 -6 -10 -11 -10 -20 -1 -9 9 -16 10 -26 2 -10 -9 -13 -8 -13 1 0
7 -8 10 -20 7 -11 -3 -20 -2 -20 2 0 4 -13 7 -29 6 -22 -1 -28 2 -23 13 4 11
1 14 -10 10 -8 -4 -21 2 -29 13 -7 10 -19 19 -25 19 -7 0 -14 7 -18 15 -3 8
-12 15 -21 15 -8 0 -15 4 -15 9 0 22 20 19 55 -9 63 -50 163 -67 253 -44 76
20 306 149 435 246 146 108 171 126 229 168 50 35 79 69 138 156 88 130 120
174 126 174 3 0 2 -6 -2 -12z m-1794 -73 c30 -23 80 -56 111 -74 l55 -31 55
26 c78 38 182 53 368 54 90 0 162 -2 159 -5 -2 -3 -85 -12 -184 -20 -253 -22
-342 -38 -357 -63 -3 -4 44 -30 106 -56 l111 -48 141 5 c149 5 184 13 315 76
42 20 79 31 105 30 l40 -1 -33 -8 c-39 -9 -102 -41 -102 -52 0 -3 26 -10 58
-14 l57 -8 -90 -12 c-49 -7 -117 -19 -150 -29 -33 -9 -115 -19 -182 -22 -87
-4 -126 -10 -134 -20 -7 -7 -10 -15 -8 -17 2 -1 22 -13 44 -26 101 -58 167
-110 140 -110 -10 0 -190 113 -197 124 -4 6 -8 8 -8 3 0 -4 -12 0 -26 9 -19
13 -22 19 -12 26 9 7 8 8 -6 4 -12 -4 -42 7 -85 33 -36 22 -84 48 -106 58 -44
20 -70 41 -70 57 -1 6 -6 10 -13 9 -7 -2 -12 1 -12 6 0 5 -31 32 -68 59 -37
28 -77 61 -87 73 -25 28 -6 18 65 -36z m2735 -218 c-30 -208 -64 -318 -123
-395 -39 -51 -235 -197 -330 -246 -66 -34 -40 -8 68 69 175 124 239 182 277
251 40 73 75 206 100 376 11 72 19 109 21 90 2 -18 -4 -84 -13 -145z m-3115
-275 l72 -84 -31 -32 c-17 -17 -31 -38 -31 -46 1 -8 20 6 44 32 l44 47 117
-120 c88 -90 120 -117 129 -109 10 7 26 -4 66 -47 49 -52 51 -57 33 -67 -32
-18 -73 -53 -73 -63 0 -4 15 -31 34 -58 30 -45 32 -52 18 -65 -14 -13 -15 -12
-10 1 4 11 -4 21 -25 33 -18 10 -24 11 -14 3 23 -19 22 -24 -13 -31 -28 -5
-29 -7 -18 -28 7 -12 19 -28 26 -36 6 -7 12 -16 12 -20 -1 -9 -60 57 -135 149
-74 91 -425 450 -425 434 0 -6 -84 -97 -186 -201 -102 -104 -183 -184 -179
-177 3 6 -4 14 -15 18 -11 3 -20 10 -20 15 0 5 -21 7 -47 5 -65 -3 -63 -3 -63
-20 0 -12 -8 -10 -37 10 -21 14 -43 25 -50 25 -20 0 -16 10 25 54 22 23 44 51
50 62 11 19 11 18 27 -4 33 -46 149 -143 158 -131 44 56 56 78 48 84 -6 3 -11
12 -11 18 0 7 4 6 10 -3 6 -9 10 -10 10 -3 0 7 -8 17 -17 22 -15 8 -15 11 -3
12 8 0 4 4 -10 8 -17 5 -24 13 -22 25 3 15 -2 18 -22 14 -14 -3 -26 -1 -26 5
0 5 -21 -8 -46 -29 -26 -21 -45 -33 -43 -26 5 15 230 242 240 242 12 0 145
158 196 234 l48 72 47 -71 c25 -38 79 -107 118 -153z m-136 -247 c9 -13 70
-80 136 -148 66 -69 120 -128 120 -132 0 -5 -3 -6 -6 -2 -7 6 -106 -67 -201
-150 -72 -63 -65 -65 -181 31 -41 33 -97 77 -124 97 l-49 37 137 146 c76 80
141 146 145 146 4 0 14 -11 23 -25z m1867 -103 c27 3 49 1 49 -3 0 -5 -6 -9
-14 -9 -41 0 -196 -81 -258 -134 -51 -45 -158 -174 -158 -191 0 -21 -25 -65
-37 -65 -7 0 -13 2 -13 5 0 17 63 130 103 185 26 35 45 70 43 77 -3 8 2 13 14
13 25 0 37 20 13 21 -10 1 -40 1 -67 0 -27 -1 -48 1 -45 3 2 2 41 19 86 39 54
23 83 31 86 24 3 -9 19 -7 56 6 30 10 61 15 73 11 21 -6 21 -6 4 11 -14 14
-15 20 -4 26 8 6 14 3 16 -7 3 -13 14 -15 53 -12z m-147 -1766 c-3 -8 4 -16
20 -20 28 -7 36 -26 11 -26 -8 0 -15 4 -15 9 0 4 -18 3 -40 -2 -22 -6 -40 -17
-40 -24 0 -7 -7 -10 -15 -7 -8 4 -22 1 -30 -6 -7 -6 -22 -10 -32 -9 -29 4 -72
-18 -128 -66 -49 -42 -117 -75 -154 -75 -9 0 11 14 44 30 33 16 85 52 117 79
31 28 59 51 62 51 4 0 24 12 46 26 22 15 64 33 93 40 68 16 67 16 61 0z m-699
-501 c0 -26 -14 -32 -32 -14 -7 7 -13 7 -17 1 -3 -6 -2 -13 4 -17 19 -11 10
-22 -14 -18 -13 3 -27 0 -30 -6 -4 -6 -2 -11 4 -11 6 0 8 -4 5 -10 -3 -5 -19
-7 -35 -3 -29 5 -43 -11 -17 -20 6 -2 8 -8 4 -13 -4 -5 -12 -2 -17 5 -6 11
-35 -2 -132 -61 -248 -150 -299 -179 -377 -213 -118 -52 -110 -42 19 23 63 32
154 83 201 114 47 31 121 76 165 99 43 23 99 57 124 74 25 18 53 35 63 38 25
9 21 26 -5 20 -19 -4 -20 -3 -8 6 8 6 29 11 47 11 17 0 35 5 38 10 9 14 10 13
10 -15z m3637 -229 c4 -6 25 -10 46 -10 l40 1 -5 -56 c-5 -65 7 -92 31 -72 13
11 16 11 16 -2 0 -17 -27 -30 -42 -21 -8 5 -9 -6 -5 -32 4 -27 1 -45 -9 -59
-15 -19 -16 -18 -9 13 6 28 4 32 -16 32 -14 0 -45 -24 -88 -68 -36 -38 -77
-76 -91 -85 -33 -20 -168 -49 -211 -45 l-34 3 35 19 c45 24 98 73 117 110 8
16 18 66 23 112 8 92 10 94 105 155 40 25 82 28 97 5z m-7796 -158 c81 -161
144 -268 265 -448 328 -490 689 -896 1149 -1292 192 -165 228 -199 160 -148
-209 156 -569 492 -793 740 -230 254 -362 428 -573 755 -96 148 -276 485 -259
485 3 0 26 -42 51 -92z m-294 -218 c146 -288 236 -445 336 -585 81 -113 78
-110 95 -97 10 9 16 7 27 -8 9 -12 22 -18 34 -15 12 2 40 6 63 9 35 4 43 2 48
-14 4 -11 3 -25 -1 -31 -5 -9 6 -10 40 -5 37 6 46 4 46 -8 0 -8 3 -22 7 -32 5
-13 3 -15 -7 -9 -9 5 -11 4 -6 -3 4 -7 18 -12 32 -12 20 0 23 -4 19 -22 -4
-18 1 -28 24 -43 30 -19 30 -20 11 -40 -15 -16 -20 -38 -23 -100 -1 -44 -6
-86 -11 -93 -8 -13 64 -110 128 -171 39 -38 46 -55 19 -47 -10 3 -76 10 -148
16 -71 5 -182 20 -246 32 -113 21 -172 20 -139 -3 11 -8 9 -9 -9 -4 -20 6 -23
4 -18 -9 4 -10 3 -15 -3 -11 -14 9 -12 -8 3 -24 7 -9 8 -12 0 -7 -17 10 -42
-4 -36 -20 4 -10 0 -12 -13 -7 -18 6 -18 5 1 -17 l20 -23 -22 12 c-24 12 -39
0 -29 -24 3 -9 0 -12 -8 -9 -7 3 -31 -13 -52 -35 -46 -49 -68 -55 -28 -8 16
18 47 55 69 83 22 27 57 68 79 91 l39 43 -61 118 c-96 185 -100 193 -136 277
-19 44 -68 159 -110 255 -43 96 -82 186 -87 199 -6 14 -14 20 -18 15 -5 -5
-90 -171 -191 -369 -223 -441 -247 -483 -280 -490 -14 -2 -83 -12 -155 -20
-71 -8 -197 -24 -280 -35 -185 -24 -181 -24 -161 -5 8 8 22 15 32 15 16 0 16
2 -2 18 -10 10 -28 23 -39 29 -20 11 -20 12 -1 19 16 6 13 10 -20 19 -22 6
-38 17 -36 24 6 28 -103 81 -125 61 -4 -4 -16 -5 -26 -1 -15 6 -16 8 -2 28 9
13 22 19 34 16 13 -3 25 3 36 21 10 14 26 26 36 26 11 0 19 5 19 10 0 6 9 10
20 10 13 0 20 7 20 20 0 10 9 24 21 31 15 8 18 14 10 22 -17 17 -13 27 9 27
11 0 23 7 27 15 3 9 13 15 22 14 28 -2 42 1 38 9 -3 4 5 8 16 8 12 1 52 5 89
8 39 5 83 3 107 -4 23 -6 47 -7 54 -3 6 4 35 9 63 9 66 2 111 25 118 61 6 34
2 85 -8 101 -10 17 -15 122 -5 122 4 0 13 -8 19 -17 9 -17 11 -17 20 -1 6 10
18 14 30 11 14 -4 20 0 20 12 0 10 6 15 18 13 10 -2 24 7 34 24 10 15 25 28
33 28 8 0 15 4 15 10 0 5 7 6 17 3 11 -4 14 -3 9 6 -4 6 -3 18 3 25 12 14 -6
76 -26 89 -7 4 -10 14 -6 22 3 9 0 22 -7 30 -7 9 -10 18 -7 22 4 3 16 -5 27
-19 14 -19 26 -24 45 -21 14 3 25 9 25 14 0 5 7 5 17 2 10 -4 14 -2 9 5 -3 6
3 16 15 22 18 10 19 14 7 28 -24 29 -52 91 -45 98 3 4 13 1 22 -6 24 -20 31
-2 11 31 -10 17 -16 39 -13 49 3 11 -3 26 -14 36 -23 21 -53 77 -36 68 7 -4
30 -22 52 -39 34 -28 42 -30 53 -18 8 8 11 20 8 28 -3 8 -1 17 4 20 5 3 10 -5
12 -17 3 -18 6 -15 12 15 9 41 23 49 29 15 3 -20 6 -19 20 14 13 28 21 36 34
31 13 -5 15 -2 11 15 -4 15 -2 19 8 15 11 -4 14 5 14 35 0 22 -5 42 -11 44 -8
3 -5 10 6 22 13 13 15 20 6 29 -6 6 -11 20 -11 31 0 10 2 17 4 15 2 -2 65
-123 138 -269z m6472 158 c-154 -305 -483 -777 -754 -1080 -166 -185 -467
-477 -542 -525 -13 -8 -7 0 12 18 296 275 437 423 639 663 208 248 476 639
630 919 23 42 44 77 47 77 2 0 -12 -33 -32 -72z m389 -39 c-10 -24 -21 -47
-26 -50 -5 -3 -9 -10 -10 -15 0 -5 -11 -33 -24 -62 -26 -59 -27 -66 -13 -57
11 7 2 -23 -12 -41 -4 -6 -6 -19 -2 -28 4 -11 1 -16 -10 -16 -9 0 -16 -6 -16
-14 0 -8 -4 -16 -10 -18 -10 -3 -14 -26 -12 -76 2 -29 5 -32 22 -27 25 8 27
-11 3 -37 -19 -21 -10 -37 11 -19 11 9 15 8 20 -5 4 -11 10 -13 19 -6 6 5 28
13 47 16 29 6 32 5 17 -5 -17 -10 -17 -12 8 -25 35 -18 44 -18 19 1 -15 11
-16 14 -4 15 8 0 26 -10 40 -23 14 -13 32 -26 40 -29 18 -6 36 -5 33 2 -1 3 9
7 23 8 13 1 24 -3 24 -8 0 -6 -7 -10 -15 -10 -8 0 -15 -4 -15 -10 0 -5 16 -10
36 -10 27 0 35 3 31 14 -4 10 -1 13 9 9 7 -3 14 0 14 6 0 6 7 11 15 11 8 0 15
6 15 13 1 16 39 61 46 54 3 -3 -6 -22 -21 -41 -22 -29 -27 -43 -22 -74 3 -20
3 -31 0 -24 -2 6 -9 10 -14 6 -17 -10 -9 -23 16 -26 24 -3 24 -4 10 -32 -19
-35 -19 -40 0 -32 9 3 15 0 15 -8 0 -8 7 -17 15 -20 9 -3 15 -11 13 -18 -1 -7
6 -28 16 -47 14 -26 20 -31 27 -20 6 10 9 10 9 2 0 -8 13 -13 31 -13 23 0 32
-5 36 -21 4 -14 8 -17 13 -9 12 19 32 1 25 -21 -4 -13 -1 -21 12 -26 10 -4 23
-14 30 -22 8 -11 12 -12 13 -3 0 14 36 16 45 2 4 -6 12 -7 18 -3 18 11 86 12
121 2 23 -7 32 -5 39 6 4 9 12 13 17 10 4 -3 10 2 14 10 8 22 102 21 110 -1 5
-13 16 -16 57 -12 28 3 55 11 59 18 6 9 10 8 17 -4 8 -14 14 -15 36 -7 22 9
27 8 27 -4 0 -28 48 -17 67 15 9 17 23 30 30 30 6 0 15 4 18 10 3 6 -1 7 -9 4
-14 -6 -21 5 -17 29 0 4 -6 7 -14 7 -8 0 -15 5 -15 10 0 6 3 10 6 10 6 0 104
-68 114 -80 3 -3 30 -25 60 -50 84 -69 93 -78 85 -89 -3 -6 -11 -11 -16 -11
-6 0 -7 5 -3 12 5 8 2 9 -9 5 -11 -4 -17 -1 -17 8 0 8 -7 15 -16 15 -8 0 -13
4 -10 9 3 4 -2 16 -12 24 -16 15 -18 14 -20 -10 -1 -15 -6 -31 -10 -35 -13
-13 -138 -31 -178 -26 -19 2 -34 0 -34 -4 0 -13 -20 -9 -36 6 -8 8 -14 24 -14
35 0 28 -28 27 -32 -1 -2 -12 -17 -29 -36 -40 -34 -19 -122 -102 -122 -115 0
-14 -58 -63 -74 -63 -9 0 -16 -5 -16 -11 0 -7 -7 -17 -17 -24 -11 -8 -13 -17
-7 -26 5 -8 9 -17 9 -21 0 -3 16 -19 36 -35 20 -16 58 -50 85 -76 l49 -47 -49
0 c-54 0 -343 28 -396 39 -31 6 -40 16 -83 91 -26 47 -83 155 -126 240 -43 85
-91 178 -107 205 -16 28 -61 114 -99 193 -38 78 -72 142 -75 142 -4 0 -37 -78
-74 -172 -37 -95 -71 -182 -76 -193 -4 -11 -26 -67 -48 -125 -22 -58 -60 -148
-84 -200 -25 -52 -53 -114 -63 -138 -11 -26 -26 -44 -39 -47 -35 -7 -467 -63
-538 -70 -38 -4 -68 -4 -68 -1 0 3 21 25 46 48 79 73 179 199 165 208 -10 6
-10 9 -1 15 6 4 9 13 6 20 -3 8 0 16 7 19 9 3 8 7 -2 14 -8 6 -11 16 -8 24 9
25 -7 38 -54 42 -57 5 -56 5 -39 16 8 5 23 7 32 4 10 -3 24 4 35 16 10 12 29
26 42 31 l25 10 -32 27 c-34 29 -42 52 -18 52 7 0 19 7 26 15 7 8 16 15 21 15
14 0 11 -38 -3 -42 -7 -3 -6 -7 5 -11 12 -5 17 -1 17 12 0 11 5 21 12 23 7 3
3 13 -12 28 -22 22 -23 24 -4 30 14 5 23 0 36 -20 21 -36 33 -43 80 -45 35 -2
38 0 33 19 -6 20 -6 20 9 2 19 -24 24 -20 99 81 125 168 278 427 410 695 39
80 73 145 74 144 2 -1 -5 -22 -14 -47z m-8050 -63 c26 -10 52 -26 57 -36 6
-11 17 -17 25 -14 8 4 15 1 15 -4 0 -16 77 -65 132 -86 60 -22 74 -40 27 -34
-19 3 -42 8 -51 13 -27 11 -23 -27 4 -44 22 -14 22 -14 3 -21 -11 -4 -24 -4
-30 0 -15 11 -65 18 -65 9 0 -4 5 -11 10 -14 6 -4 8 -11 5 -16 -4 -5 -18 2
-33 16 -15 14 -35 28 -44 31 -10 3 -18 10 -18 15 0 5 -10 9 -22 9 -26 0 -78
40 -78 60 0 7 -8 10 -20 7 -21 -5 -70 26 -70 45 0 6 8 4 18 -5 31 -28 40 -20
36 32 -2 28 1 53 6 56 6 4 7 12 3 18 -4 7 4 5 17 -4 14 -8 46 -23 73 -33z m40
-586 c26 -7 47 -16 47 -20 0 -16 -259 -56 -309 -48 l-23 3 21 24 c12 13 21 33
21 44 0 19 5 19 98 15 53 -3 118 -11 145 -18z m9397 -4 c0 -15 11 -33 26 -45
l27 -21 -24 0 c-63 1 -289 39 -289 49 0 10 155 39 213 40 43 1 47 -1 47 -23z
m123 -822 c-15 -11 -13 -12 14 -2 25 10 40 9 66 0 18 -7 40 -12 48 -12 8 0 24
-6 34 -14 16 -12 17 -16 6 -30 -11 -14 -11 -16 3 -16 8 0 22 -11 31 -23 11
-17 32 -27 73 -36 82 -18 92 -21 92 -32 0 -5 -11 -14 -25 -19 -28 -11 -32 -25
-10 -34 13 -5 13 -9 3 -25 -9 -15 -14 -17 -20 -8 -6 9 -8 9 -8 0 0 -6 7 -19
16 -27 18 -19 16 -19 -42 -5 -24 6 -44 15 -44 20 0 5 -16 9 -36 9 -19 0 -33
-4 -29 -9 3 -5 -15 -20 -40 -32 -49 -25 -54 -33 -27 -49 16 -10 15 -10 -3 -8
-11 1 -26 -1 -33 -6 -18 -11 32 -37 56 -29 9 3 14 3 10 -2 -4 -4 -3 -14 3 -22
9 -10 3 -13 -34 -13 -52 0 -107 -10 -107 -19 0 -3 18 -14 40 -24 60 -26 54
-50 -7 -26 -43 17 -163 24 -243 14 -25 -4 -67 -8 -95 -10 -27 -2 -79 -7 -113
-10 -63 -7 -64 -7 -58 17 3 12 3 17 0 10 -3 -6 -11 -9 -16 -6 -7 5 -8 2 -3 -6
6 -10 4 -12 -8 -7 -9 3 -18 1 -20 -6 -2 -7 -8 -8 -13 -4 -5 5 99 113 235 245
134 130 240 240 235 245 -4 4 -21 7 -38 8 -31 1 -31 1 -5 9 14 4 42 6 62 5 21
-2 37 1 37 6 0 4 7 6 15 3 14 -6 13 -8 -2 -20z m-2562 -305 c74 -70 161 -148
194 -175 33 -26 92 -75 130 -109 39 -33 83 -70 98 -82 l28 -22 -15 -58 c-14
-55 -27 -125 -60 -313 -8 -47 -27 -138 -43 -202 -27 -115 -28 -117 -53 -111
-14 3 -28 11 -31 16 -7 10 -26 8 -134 -17 -34 -8 -53 -16 -45 -20 36 -14 109
-26 162 -26 31 0 59 -4 62 -9 8 -12 -15 -75 -23 -64 -9 14 -119 35 -192 37
-35 1 -68 4 -74 8 -20 12 -130 2 -160 -14 -177 -99 -358 -157 -541 -172 l-59
-6 60 19 c33 10 98 28 145 40 121 30 249 68 293 88 35 15 37 18 18 24 -11 5
-45 2 -76 -6 -71 -19 -87 -18 -55 1 24 15 24 15 -20 10 -25 -3 -87 -21 -137
-39 -51 -19 -93 -32 -93 -28 0 8 101 50 223 92 53 18 97 37 97 40 0 11 -126 2
-194 -14 -97 -24 -128 -28 -121 -17 3 6 13 10 21 10 9 0 38 10 66 22 43 18 47
23 31 32 -24 14 -42 18 -80 16 -23 0 -33 4 -33 15 0 8 7 15 16 15 30 0 4 17
-36 24 -22 3 -40 10 -40 16 0 5 -33 10 -72 12 -60 3 -67 5 -43 11 17 5 37 11
45 14 8 3 21 7 28 9 28 5 23 13 -12 19 -20 4 -44 4 -53 0 -10 -5 -29 -10 -42
-12 -13 -2 -38 -12 -55 -21 -17 -9 -38 -18 -46 -19 -36 -6 -159 -39 -165 -44
-7 -8 57 -39 82 -39 10 0 47 -9 81 -20 35 -11 78 -21 95 -21 22 -1 26 -3 12
-6 -11 -3 -23 -10 -26 -15 -3 -5 -30 -1 -65 11 -32 11 -75 22 -94 26 -19 3
-44 10 -55 15 -97 43 -119 50 -162 50 -63 -1 -162 -22 -193 -42 -14 -9 -40
-19 -57 -23 -41 -8 -41 -15 -2 -54 35 -36 26 -39 -29 -11 -31 16 -52 19 -98
16 -32 -3 -115 -9 -184 -15 -80 -6 -147 -17 -185 -30 -33 -12 -62 -21 -64 -21
-13 0 205 139 294 188 189 102 674 408 840 529 96 70 266 207 360 288 167 146
332 294 349 313 23 27 17 31 187 -129z m-4582 67 c184 -177 581 -492 838 -664
195 -131 484 -311 585 -366 89 -48 352 -206 367 -222 3 -2 -13 2 -36 10 -25 9
-45 11 -54 5 -8 -5 -25 -9 -39 -9 -24 -1 -24 -2 8 -17 17 -9 32 -20 32 -25 0
-10 2 -10 -40 2 -59 18 -147 14 -185 -9 -39 -23 -79 -35 -185 -57 -41 -8 -92
-22 -114 -30 -21 -8 -41 -12 -44 -9 -3 3 13 13 36 22 23 9 42 19 42 23 0 21
-334 -27 -430 -61 -30 -11 -62 -22 -70 -24 -8 -1 -33 -8 -56 -14 -64 -17 -327
-11 -436 10 -51 10 -94 19 -95 19 -2 0 -3 3 -3 8 0 4 120 7 267 7 258 0 273 1
398 29 247 54 291 72 228 97 l-28 11 45 14 c25 7 52 14 60 14 26 0 87 35 82
48 -5 16 -60 29 -157 37 -78 7 -122 22 -158 53 -14 13 -25 14 -66 4 -27 -6
-64 -9 -84 -5 -57 9 -203 -15 -265 -44 -31 -15 -66 -26 -78 -25 -12 1 -34 -4
-50 -13 -16 -8 -34 -15 -41 -15 -6 0 -28 -9 -47 -21 -20 -12 -36 -18 -36 -15
0 4 -10 2 -21 -5 -12 -6 -19 -7 -16 -2 3 4 37 24 76 43 39 18 71 37 71 41 0 4
-17 10 -37 13 -70 13 -113 27 -113 36 0 16 53 11 115 -10 76 -26 86 -26 196
11 76 26 116 33 204 36 61 3 114 9 119 13 15 14 -9 64 -37 78 -15 7 -27 17
-27 23 0 11 -79 11 -138 0 -34 -7 -44 -5 -51 7 -5 9 -14 12 -21 7 -10 -6 -10
-9 0 -15 15 -9 13 -10 -110 -38 -118 -28 -170 -35 -170 -25 0 9 171 53 207 53
10 0 25 5 33 10 10 6 -18 8 -80 6 -101 -4 -102 -5 55 28 l60 13 -30 12 c-16 7
-46 13 -65 14 -19 1 -38 7 -43 12 -4 6 -14 1 -25 -12 -13 -17 -23 -21 -42 -16
-22 6 -24 5 -11 -10 12 -15 9 -21 -11 -18 -22 3 -112 -21 -159 -42 -146 -67
-175 -73 -103 -23 27 19 55 40 62 46 19 17 14 32 -8 25 -11 -3 -20 -4 -20 -1
0 7 61 36 77 36 7 0 13 5 13 11 0 6 -16 8 -40 6 -42 -4 -52 5 -22 22 14 8 10
10 -20 11 -21 0 -38 5 -38 10 0 15 -31 12 -128 -9 -85 -19 -243 -41 -251 -35
-2 2 15 11 37 19 l41 17 -24 26 c-20 21 -34 26 -82 28 -32 1 -71 -2 -88 -6
-16 -5 -46 -11 -65 -13 -19 -3 -42 -6 -50 -8 -10 -3 -16 8 -21 36 -4 22 -16
83 -27 135 -12 52 -23 118 -26 145 l-6 50 210 180 c239 205 383 325 389 325 2
0 33 -29 70 -64z m-2309 -187 c52 -47 136 -120 186 -162 l92 -78 -13 -47 c-7
-26 -24 -85 -38 -132 -14 -47 -29 -102 -32 -122 -4 -20 -14 -45 -22 -55 -8
-10 -12 -12 -8 -5 9 18 -52 16 -62 -2 -10 -18 -63 -33 -63 -18 0 6 -18 13 -40
17 -54 9 -41 24 20 23 38 -1 56 4 73 19 12 11 32 24 43 27 12 4 29 15 38 25
16 17 15 19 -25 25 -33 5 -39 9 -30 20 7 8 21 12 31 9 27 -7 25 1 -5 21 -24
16 -28 15 -83 -10 -63 -29 -129 -44 -119 -27 4 6 21 13 39 17 31 6 88 50 88
68 0 13 -28 9 -33 -4 -2 -7 -8 -10 -12 -6 -4 4 -3 20 3 37 8 23 7 31 -4 35 -7
3 -11 11 -8 19 9 24 -46 39 -143 38 -64 0 -92 3 -90 11 4 18 -50 28 -65 11 -9
-11 -23 -13 -57 -8 -25 4 -53 11 -61 16 -10 7 -4 8 20 4 19 -3 44 -7 55 -9 11
-2 32 5 47 15 14 11 31 19 37 19 15 0 14 17 -1 26 -7 5 -43 7 -80 7 -80 -2
-158 -32 -191 -74 -19 -24 -26 -27 -57 -21 l-34 8 24 18 c17 12 21 20 12 23
-6 3 -10 9 -6 14 3 5 -2 16 -10 25 -9 8 -16 12 -16 8 0 -3 -6 -2 -13 4 -7 6
-23 9 -35 5 -41 -10 -24 25 32 69 30 23 50 45 45 49 -6 3 0 9 13 12 33 9 88 8
88 -1 0 -5 13 -7 29 -4 40 6 47 -14 11 -33 -38 -20 -38 -30 3 -51 47 -25 248
-32 266 -11 7 9 18 14 25 11 17 -7 27 41 12 56 -8 8 -7 13 4 20 8 5 11 10 6
10 -5 0 -3 6 3 14 17 20 -3 30 -31 15 l-23 -11 22 21 c12 11 29 21 37 21 8 0
18 5 22 12 5 7 2 9 -8 5 -12 -4 -14 -1 -11 14 4 12 -3 26 -16 38 -11 10 -21
22 -21 26 0 9 12 -1 140 -116z m10145 -229 c-6 -20 4 -25 47 -21 22 2 32 -15
13 -23 -24 -9 -18 -22 15 -36 41 -17 32 -23 -19 -11 -32 7 -41 6 -41 -4 0 -15
-12 -19 -75 -30 -22 -4 -57 -16 -77 -27 -30 -17 -40 -19 -52 -9 -12 10 -31 -3
-113 -83 -60 -60 -105 -96 -118 -95 -16 0 -13 6 19 32 77 64 147 135 138 141
-18 11 -88 -22 -158 -74 -38 -29 -75 -54 -81 -57 -7 -3 -13 -11 -13 -19 0 -13
18 -19 47 -15 6 1 15 -3 18 -10 5 -7 -1 -10 -16 -8 -13 1 -42 -3 -64 -10 -22
-7 -53 -11 -69 -9 -27 3 -26 5 39 53 167 124 230 165 253 165 57 0 162 46 162
71 0 5 -9 9 -20 9 -11 0 -20 5 -20 10 0 6 6 10 14 10 7 0 24 9 38 19 13 11 49
26 79 34 29 8 55 15 57 16 2 0 0 -8 -3 -19z m-11600 -296 c61 -15 189 -65 280
-110 28 -13 56 -24 62 -24 7 0 15 -4 18 -10 6 -10 -95 -10 -105 0 -6 6 -134
50 -145 50 -4 0 -2 -7 5 -15 7 -8 24 -15 39 -15 14 -1 36 -9 49 -19 27 -23 29
-35 4 -22 -10 6 -28 8 -39 5 -12 -3 -44 9 -82 31 -35 21 -75 41 -90 45 -24 8
-24 8 -3 9 12 1 22 5 22 10 0 5 -10 12 -22 16 -25 7 -62 22 -90 36 -24 12
-124 11 -173 -2 -55 -15 -87 -16 -92 -3 -2 7 20 16 54 22 32 7 67 14 78 16 34
7 166 -4 230 -20z m689 -499 c10 -7 15 -19 11 -25 -4 -6 -1 -9 7 -8 24 5 21
-46 -4 -69 -40 -37 -65 -38 -98 -4 -38 37 -38 55 -1 92 32 32 56 36 85 14z
m172 -117 c11 -18 43 -161 38 -170 -8 -12 -31 -10 -104 13 -108 33 -109 42 -5
128 54 44 60 47 71 29z m8197 -18 c91 -16 201 -41 244 -55 91 -29 165 -32 264
-9 39 9 73 14 76 11 10 -10 -47 -39 -87 -44 -22 -3 -40 -10 -40 -15 0 -6 -26
-9 -57 -8 -81 3 -108 1 -99 -7 4 -5 17 -9 29 -10 58 -4 338 -50 344 -56 5 -6
-248 -13 -285 -8 -8 1 -19 -2 -25 -7 -7 -5 -44 -12 -84 -15 -74 -6 -190 -33
-207 -48 -6 -5 -21 -9 -35 -10 -43 -1 -96 -25 -93 -41 3 -20 -60 -33 -87 -18
-29 15 -17 34 37 58 122 54 232 102 236 102 2 0 21 7 42 16 l39 17 -25 10
c-24 10 -23 11 19 16 43 6 43 7 20 18 -72 35 -279 67 -279 43 0 -6 5 -10 10
-10 6 0 10 -4 10 -9 0 -13 -69 -19 -73 -6 -3 6 -9 6 -18 -2 -8 -6 -44 -23 -79
-36 -36 -14 -105 -41 -154 -61 -48 -21 -91 -35 -93 -32 -5 4 153 83 289 144
21 9 38 22 38 29 0 15 -94 44 -118 37 -12 -4 -10 1 7 15 30 27 37 27 234 -9z
m-8503 -45 c7 -8 13 -26 13 -40 0 -14 4 -25 8 -25 5 0 14 -11 19 -25 5 -14 14
-25 20 -25 26 0 110 -44 110 -57 0 -7 -29 -27 -64 -43 -48 -22 -65 -36 -70
-55 -4 -14 -11 -23 -16 -20 -5 3 -8 0 -5 -7 7 -18 -28 -68 -41 -60 -18 12 -35
52 -28 64 4 7 3 8 -4 4 -7 -4 -12 -1 -12 7 0 18 -38 53 -68 62 -12 3 -20 11
-17 16 3 5 -2 6 -11 2 -11 -4 -15 -2 -11 4 4 6 -1 10 -10 9 -10 0 -19 7 -21
17 -4 19 49 46 98 50 15 1 27 4 25 7 -2 3 5 23 15 45 11 22 19 45 20 51 0 11
20 34 31 34 4 0 12 -7 19 -15z m3765 -120 c-84 -15 -235 -67 -363 -124 -51
-22 -99 -41 -107 -41 -8 0 -15 -4 -15 -8 0 -5 -55 -6 -122 -4 -175 7 -277 6
-286 -2 -4 -4 2 -14 12 -22 19 -13 18 -14 -12 -14 -18 0 -32 4 -32 8 0 5 -75
9 -166 10 -91 0 -169 3 -172 6 -3 3 0 6 7 6 7 0 31 9 54 19 48 22 106 34 267
56 200 28 254 37 299 51 27 8 51 10 60 4 11 -6 4 -11 -29 -19 -25 -7 -54 -15
-65 -20 -19 -8 -19 -8 3 -20 13 -7 53 -15 90 -18 55 -4 82 0 152 22 113 36
181 65 175 76 -3 4 -12 6 -19 3 -8 -3 -17 0 -22 7 -5 9 3 11 32 7 21 -3 77 3
124 13 47 9 112 17 145 17 l60 0 -70 -13z m-1117 -86 c109 -13 121 -29 22 -29
-36 0 -68 -7 -93 -20 -39 -21 -149 -33 -292 -33 -88 1 -195 13 -195 23 0 4 24
13 53 19 45 11 58 11 91 -3 49 -20 80 -20 111 0 16 11 44 15 87 14 93 -3 129
-2 136 5 11 11 -22 25 -60 25 -20 0 -40 5 -44 11 -4 8 7 10 37 6 24 -3 90 -11
147 -18z m5663 -49 c10 0 19 -4 19 -10 0 -5 -10 -9 -22 -8 -34 1 -237 -11
-280 -18 -23 -3 -38 -11 -38 -19 0 -14 -56 -43 -139 -71 -25 -8 -48 -18 -51
-22 -10 -14 -48 -31 -84 -37 -49 -10 -46 -25 6 -25 23 0 38 -3 35 -7 -4 -3
-53 -7 -110 -7 -88 -1 -110 -5 -162 -28 l-60 -27 33 -7 c54 -11 34 -19 -73
-29 -45 -4 -54 -3 -37 5 27 11 19 34 -9 27 -10 -3 -21 -2 -24 3 -2 4 13 10 34
14 21 3 44 12 50 20 32 39 -178 48 -263 11 -44 -19 -82 -15 -149 15 l-42 19
100 -1 c55 0 111 3 125 6 14 3 75 8 135 10 61 3 126 10 145 15 19 6 64 16 100
21 108 17 203 41 237 62 18 11 37 17 42 14 10 -7 105 19 141 38 14 7 50 19 80
26 30 7 78 19 105 26 121 33 119 33 128 7 5 -13 17 -23 28 -23z m2632 15 c-5
-16 7 -16 110 0 38 6 31 -17 -9 -29 -16 -4 -37 -12 -47 -18 -10 -5 -21 -7 -25
-4 -9 6 -91 -17 -162 -44 -79 -31 -175 -49 -208 -41 -23 6 -17 9 35 15 48 5
89 21 185 70 68 35 124 64 125 65 1 1 0 -6 -4 -14z m-7368 -295 c7 -11 7 -11
-45 -15 -19 -2 -57 -8 -86 -15 -36 -9 -64 -10 -97 -2 -53 11 -207 -2 -241 -20
-40 -21 -212 -54 -185 -35 22 15 129 50 179 58 35 5 68 13 74 17 9 5 160 14
343 20 28 1 55 -2 58 -8z"/>
<path d="M5697 8666 c-71 -66 -32 -348 55 -396 36 -20 76 -5 102 39 42 73 11
296 -49 357 -31 31 -74 31 -108 0z"/>
<path d="M5258 8602 c-16 -2 -28 -9 -28 -15 -1 -33 55 -364 63 -374 5 -7 25
-13 43 -13 49 0 74 44 74 128 0 76 -24 186 -49 229 -21 33 -60 50 -103 45z"/>
<path d="M8266 8383 c-2 -10 -10 -45 -16 -78 -6 -33 -14 -68 -16 -77 -8 -27
67 -25 91 2 27 29 33 130 10 153 -22 22 -62 22 -69 0z"/>
<path d="M5662 7820 c-35 -10 -113 -43 -175 -73 -62 -31 -128 -59 -147 -62
-21 -4 -64 2 -110 15 -99 28 -160 36 -160 21 0 -6 11 -11 24 -11 24 0 70 -16
213 -76 97 -40 112 -41 178 -10 63 29 258 197 244 210 -2 2 -32 -4 -67 -14z"/>
<path d="M3784 1845 c4 -10 -1 -15 -14 -15 -11 0 -20 5 -20 11 0 8 -4 8 -14 0
-7 -6 -32 -12 -55 -14 -37 -2 -60 -17 -61 -38 0 -6 67 -4 251 4 43 2 56 0 55
-11 -1 -8 16 -24 37 -35 34 -18 44 -19 90 -8 29 6 77 23 107 37 47 23 52 27
35 35 -11 4 -50 5 -88 2 -55 -5 -71 -3 -86 11 -16 15 -32 16 -115 10 -85 -6
-96 -5 -96 10 0 9 -7 16 -16 16 -10 0 -14 -6 -10 -15z"/>
<path d="M5070 1662 c0 -8 -6 -12 -14 -9 -16 6 -76 -13 -76 -24 0 -4 16 -26
35 -49 19 -23 35 -48 35 -55 0 -25 72 -74 124 -85 76 -15 301 -15 373 -1 58
13 61 15 53 36 -5 13 -6 26 -3 29 4 3 -3 6 -15 6 -16 0 -21 5 -19 20 1 15 -9
27 -38 43 -22 12 -42 25 -45 29 -5 7 -32 12 -100 22 -9 1 -21 6 -29 10 -7 5
-40 8 -72 7 -34 -1 -59 3 -59 9 0 5 -15 10 -34 10 -19 0 -38 4 -41 10 -10 15
-75 9 -75 -8z"/>
</g>
</svg>
